<?xml version="1.0" standalone="no"?>
<!DOCTYPE svg PUBLIC "-//W3C//DTD SVG 20010904//EN"
 "http://www.w3.org/TR/2001/REC-SVG-20010904/DTD/svg10.dtd">
<svg version="1.0" xmlns="http://www.w3.org/2000/svg"
 width="240.000000pt" height="240.000000pt" viewBox="0 0 240.000000 240.000000"
 preserveAspectRatio="xMidYMid meet">
<metadata>
Created by potrace 1.11, written by Peter Selinger 2001-2013
</metadata>
<g transform="translate(0.000000,240.000000) scale(0.100000,-0.100000)"
fill="#000000" stroke="none">
<path d="M959 2396 c-2 -2 -47 -6 -99 -10 -103 -7 -331 -40 -395 -57 -22 -6
-47 -13 -55 -14 -32 -7 -128 -44 -168 -64 -50 -26 -99 -72 -112 -106 -6 -17
-10 -370 -10 -948 0 -879 1 -924 19 -957 22 -42 91 -91 169 -120 58 -22 218
-64 282 -74 57 -9 201 -27 255 -32 97 -9 571 -11 660 -3 156 14 210 20 225 24
8 2 35 7 60 10 25 3 52 8 60 10 8 2 31 7 50 10 55 9 201 55 245 78 62 31 102
65 119 102 14 29 16 133 16 955 0 1056 8 966 -94 1032 -95 61 -327 123 -541
144 -38 3 -79 9 -90 11 -23 5 -591 14 -596 9z m601 -130 c19 -3 60 -8 90 -11
215 -23 461 -93 502 -142 38 -46 -193 -126 -487 -167 -201 -28 -714 -29 -910
-1 -16 2 -48 6 -70 9 -173 22 -352 73 -417 118 -35 24 -35 32 3 59 55 39 262
97 413 115 23 3 55 7 71 9 17 3 71 7 120 11 50 4 92 8 94 10 5 5 552 -5 591
-10z m-1127 -385 c40 -11 88 -22 107 -25 19 -3 46 -8 60 -10 45 -8 174 -26
230 -32 30 -3 174 -7 320 -8 273 -4 500 10 650 39 13 3 42 7 63 10 54 8 203
52 255 75 l42 19 0 -229 0 -229 -30 -21 c-79 -56 -340 -116 -605 -138 -115 -9
-520 -9 -647 0 -265 20 -521 79 -610 140 l-28 19 0 229 0 228 60 -25 c33 -13
93 -32 133 -42z m0 -600 c40 -11 88 -22 107 -25 19 -3 46 -8 60 -11 51 -10
188 -26 285 -33 198 -14 659 -6 776 13 13 2 47 6 74 10 130 16 328 67 398 102
l27 14 0 -231 0 -230 -37 -23 c-64 -39 -200 -80 -338 -102 -129 -21 -170 -26
-260 -32 -195 -15 -688 -7 -780 12 -11 3 -38 7 -60 10 -190 26 -350 71 -417
117 l-28 19 0 229 0 228 60 -25 c33 -13 93 -32 133 -42z m-22 -595 c48 -13
104 -27 126 -31 21 -3 48 -7 60 -9 23 -5 86 -14 143 -21 154 -20 603 -27 792
-12 248 19 507 73 607 126 l21 12 0 -231 0 -230 -38 -24 c-64 -40 -255 -93
-402 -111 -25 -3 -61 -8 -80 -11 -141 -20 -568 -26 -765 -12 -254 19 -525 81
-605 138 l-30 21 0 229 0 229 43 -19 c23 -10 81 -30 128 -44z"/>
</g>
</svg>
